# xmcd
#
# Track frame offsets:
#	150
#	14330
#	32690
#	55385
#	82743
#
# Disc length: 1580 seconds
#
# Revision: 0
# Processed by: cddbd v1.5.2PL0 Copyright (c) Steve Scherf et al.
# Submitted via: EasyCDDAExtractor 2010.6.0.0
#
DISCID=30062a05
DTITLE=Young MC - Bust A Move 2002
DYEAR=2002
DGENRE=Dance
TTITLE0=Bust A Move (Radio Edit)
TTITLE1=Bust A Move (Video Cut)
TTITLE2=Bust A Move (Deezee Big Beat Tended Mix)
TTITLE3=Bust A Move (Turntable Rockers Main Mix)
TTITLE4=Bust A Move 
EXTD=
EXTT0=
EXTT1=
EXTT2=
EXTT3=
EXTT4=
PLAYORDER=
